{
  "accessors": [
    {
      "bufferView": 2,
      "componentType": 5126,
      "count": 658,
      "max": [
        1.7909698486328125,
        0.9999998807907104,
        1.7909674644470215
      ],
      "min": [
        -1.7909678220748901,
        -1.0,
        -1.7909717559814453
      ],
      "type": "VEC3"
    },
    {
      "bufferView": 2,
      "byteOffset": 7896,
      "componentType": 5126,
      "count": 658,
      "max": [
        1.0,
        1.0,
        1.0
      ],
      "min": [
        -1.0,
        -1.0,
        -1.0
      ],
      "type": "VEC3"
    },
    {
      "bufferView": 1,
      "componentType": 5126,
      "count": 658,
      "max": [
        0.9667763710021973,
        0.9052183032035828
      ],
      "min": [
        0.0,
        0.0
      ],
      "type": "VEC2"
    },
    {
      "bufferView": 0,
      "componentType": 5125,
      "count": 2160,
      "type": "SCALAR"
    },
    {
      "bufferView": 2,
      "byteOffset": 15792,
      "componentType": 5126,
      "count": 306,
      "max": [
        1.0000004768371582,
        9.668460845947266,
        8.148702621459961
      ],
      "min": [
        -1.000000238418579,
        -1.0,
        -1.0000004768371582
      ],
      "type": "VEC3"
    },
    {
      "bufferView": 2,
      "byteOffset": 19464,
      "componentType": 5126,
      "count": 306,
      "max": [
        1.0,
        0.9741676449775696,
        1.0
      ],
      "min": [
        -1.0,
        -1.0,
        -1.0
      ],
      "type": "VEC3"
    },
    {
      "bufferView": 1,
      "byteOffset": 5264,
      "componentType": 5126,
      "count": 306,
      "max": [
        0.9979352355003357,
        0.9887388944625854
      ],
      "min": [
        0.0,
        0.0
      ],
      "type": "VEC2"
    },
    {
      "bufferView": 0,
      "byteOffset": 8640,
      "componentType": 5125,
      "count": 1200,
      "type": "SCALAR"
    },
    {
      "bufferView": 2,
      "byteOffset": 23136,
      "componentType": 5126,
      "count": 133,
      "max": [
        0.2404460906982422,
        2.8868210315704346,
        0.06488323211669922
      ],
      "min": [
        -0.24044585227966309,
        -3.1670703887939453,
        -0.07265591621398926
      ],
      "type": "VEC3"
    },
    {
      "bufferView": 2,
      "byteOffset": 24732,
      "componentType": 5126,
      "count": 133,
      "max": [
        1.0,
        1.0,
        0.9999392628669739
      ],
      "min": [
        -1.0,
        -1.0,
        -0.9993986487388611
      ],
      "type": "VEC3"
    },
    {
      "bufferView": 1,
      "byteOffset": 7712,
      "componentType": 5126,
      "count": 133,
      "max": [
        1.0,
        0.9964426159858704
      ],
      "min": [
        0.2152499109506607,
        0.0
      ],
      "type": "VEC2"
    },
    {
      "bufferView": 0,
      "byteOffset": 13440,
      "componentType": 5125,
      "count": 429,
      "type": "SCALAR"
    },
    {
      "bufferView": 2,
      "byteOffset": 26328,
      "componentType": 5126,
      "count": 382,
      "max": [
        0.010863146744668484,
        0.010863817296922207,
        0.03891398012638092
      ],
      "min": [
        -0.010863103903830051,
        -0.010863744653761387,
        -0.03891395032405853
      ],
      "type": "VEC3"
    },
    {
      "bufferView": 2,
      "byteOffset": 30912,
      "componentType": 5126,
      "count": 382,
      "max": [
        1.0,
        1.0,
        1.0
      ],
      "min": [
        -1.0,
        -1.0,
        -1.0
      ],
      "type": "VEC3"
    },
    {
      "bufferView": 1,
      "byteOffset": 8776,
      "componentType": 5126,
      "count": 382,
      "max": [
        0.9228146076202393,
        0.8275671005249023
      ],
      "min": [
        0.12684369087219238,
        0.009823250584304333
      ],
      "type": "VEC2"
    },
    {
      "bufferView": 0,
      "byteOffset": 15156,
      "componentType": 5125,
      "count": 960,
      "type": "SCALAR"
    },
    {
      "bufferView": 2,
      "byteOffset": 35496,
      "componentType": 5126,
      "count": 382,
      "max": [
        0.010863146744668484,
        0.010863817296922207,
        0.03891398012638092
      ],
      "min": [
        -0.010863103903830051,
        -0.010863744653761387,
        -0.03891395032405853
      ],
      "type": "VEC3"
    },
    {
      "bufferView": 2,
      "byteOffset": 40080,
      "componentType": 5126,
      "count": 382,
      "max": [
        1.0,
        1.0,
        1.0
      ],
      "min": [
        -1.0,
        -1.0,
        -1.0
      ],
      "type": "VEC3"
    },
    {
      "bufferView": 1,
      "byteOffset": 11832,
      "componentType": 5126,
      "count": 382,
      "max": [
        0.9228146076202393,
        0.8275671005249023
      ],
      "min": [
        0.12684369087219238,
        0.009823250584304333
      ],
      "type": "VEC2"
    },
    {
      "bufferView": 0,
      "byteOffset": 18996,
      "componentType": 5125,
      "count": 960,
      "type": "SCALAR"
    },
    {
      "bufferView": 2,
      "byteOffset": 44664,
      "componentType": 5126,
      "count": 246,
      "max": [
        0.15056751668453217,
        0.03108908049762249,
        1.1048593521118164
      ],
      "min": [
        -0.8421177864074707,
        -1.0910390615463257,
        0.10485929995775223
      ],
      "type": "VEC3"
    },
    {
      "bufferView": 2,
      "byteOffset": 47616,
      "componentType": 5126,
      "count": 246,
      "max": [
        0.9964568018913269,
        1.0,
        1.0
      ],
      "min": [
        -1.0,
        -1.0,
        -1.0
      ],
      "type": "VEC3"
    },
    {
      "bufferView": 1,
      "byteOffset": 14888,
      "componentType": 5126,
      "count": 246,
      "max": [
        0.9943327903747559,
        0.8763184547424316
      ],
      "min": [
        0.015375018119812012,
        0.0
      ],
      "type": "VEC2"
    },
    {
      "bufferView": 0,
      "byteOffset": 22836,
      "componentType": 5125,
      "count": 420,
      "type": "SCALAR"
    },
    {
      "bufferView": 2,
      "byteOffset": 50568,
      "componentType": 5126,
      "count": 246,
      "max": [
        0.1382734477519989,
        0.03096584789454937,
        -0.09283367544412613
      ],
      "min": [
        -0.8544118404388428,
        -1.0911623239517212,
        -1.0928336381912231
      ],
      "type": "VEC3"
    },
    {
      "bufferView": 2,
      "byteOffset": 53520,
      "componentType": 5126,
      "count": 246,
      "max": [
        0.9964568018913269,
        1.0,
        1.0
      ],
      "min": [
        -1.0,
        -1.0,
        -1.0
      ],
      "type": "VEC3"
    },
    {
      "bufferView": 1,
      "byteOffset": 16856,
      "componentType": 5126,
      "count": 246,
      "max": [
        0.9967456459999084,
        0.8718442916870117
      ],
      "min": [
        0.0,
        0.0
      ],
      "type": "VEC2"
    },
    {
      "bufferView": 0,
      "byteOffset": 24516,
      "componentType": 5125,
      "count": 420,
      "type": "SCALAR"
    },
    {
      "bufferView": 3,
      "componentType": 5126,
      "count": 19,
      "max": [
        7.291666507720947
      ],
      "min": [
        0.0416666679084301
      ],
      "type": "SCALAR"
    },
    {
      "bufferView": 4,
      "componentType": 5126,
      "count": 19,
      "max": [
        0.1496790498495102,
        0.7909936904907227,
        0.078406423330307
      ],
      "min": [
        0.13057592511177063,
        0.7909936904907227,
        0.078406423330307
      ],
      "type": "VEC3"
    },
    {
      "bufferView": 3,
      "byteOffset": 76,
      "componentType": 5126,
      "count": 196,
      "max": [
        7.291666507720947
      ],
      "min": [
        0.0416666679084301
      ],
      "type": "SCALAR"
    },
    {
      "bufferView": 5,
      "componentType": 5126,
      "count": 196,
      "max": [
        0.006625763140618801,
        0.9999999403953552,
        3.4417645255739146e-17,
        1.9833779385771875e-16
      ],
      "min": [
        -0.7001550793647766,
        0.7139908075332642,
        -2.022571211837828e-16,
        -5.2357624407572915e-17
      ],
      "type": "VEC4"
    },
    {
      "bufferView": 3,
      "byteOffset": 860,
      "componentType": 5126,
      "count": 199,
      "max": [
        7.291666507720947
      ],
      "min": [
        0.0416666679084301
      ],
      "type": "SCALAR"
    },
    {
      "bufferView": 5,
      "byteOffset": 3136,
      "componentType": 5126,
      "count": 199,
      "max": [
        8.20056006675435e-17,
        8.677288076570301e-17,
        -0.0023609951604157686,
        0.9999971985816956
      ],
      "min": [
        -8.691124492112598e-17,
        -9.445335863237628e-17,
        -0.7065432667732239,
        0.7076698541641235
      ],
      "type": "VEC4"
    },
    {
      "bufferView": 3,
      "byteOffset": 1656,
      "componentType": 5126,
      "count": 153,
      "max": [
        7.583333492279053
      ],
      "min": [
        0.0416666679084301
      ],
      "type": "SCALAR"
    },
    {
      "bufferView": 4,
      "byteOffset": 228,
      "componentType": 5126,
      "count": 153,
      "max": [
        4.78104305267334,
        12.24960708618164,
        -1.360419750213623
      ],
      "min": [
        0.5530562400817871,
        6.025082588195801,
        -1.391711711883545
      ],
      "type": "VEC3"
    },
    {
      "bufferView": 3,
      "byteOffset": 2268,
      "componentType": 5126,
      "count": 194,
      "max": [
        7.583333492279053
      ],
      "min": [
        0.0416666679084301
      ],
      "type": "SCALAR"
    },
    {
      "bufferView": 5,
      "byteOffset": 6320,
      "componentType": 5126,
      "count": 194,
      "max": [
        0.8836121559143066,
        0.9299820065498352,
        0.9621988534927368,
        0.9999812841415405
      ],
      "min": [
        -0.45767441391944885,
        -0.20508086681365967,
        -0.8634821772575378,
        -0.4986517131328583
      ],
      "type": "VEC4"
    }
  ],
  "animations": [
    {
      "channels": [
        {
          "sampler": 0,
          "target": {
            "node": 23,
            "path": "scale"
          }
        },
        {
          "sampler": 1,
          "target": {
            "node": 23,
            "path": "rotation"
          }
        },
        {
          "sampler": 2,
          "target": {
            "node": 25,
            "path": "rotation"
          }
        },
        {
          "sampler": 3,
          "target": {
            "node": 13,
            "path": "translation"
          }
        },
        {
          "sampler": 4,
          "target": {
            "node": 13,
            "path": "rotation"
          }
        }
      ],
      "name": "Take 001",
      "samplers": [
        {
          "input": 28,
          "interpolation": "LINEAR",
          "output": 29
        },
        {
          "input": 30,
          "interpolation": "LINEAR",
          "output": 31
        },
        {
          "input": 32,
          "interpolation": "LINEAR",
          "output": 33
        },
        {
          "input": 34,
          "interpolation": "LINEAR",
          "output": 35
        },
        {
          "input": 36,
          "interpolation": "LINEAR",
          "output": 37
        }
      ]
    }
  ],
  "asset": {
    "extras": {
      "author": "Lirissa (https://sketchfab.com/Lirissa)",
      "license": "CC-BY-4.0 (http://creativecommons.org/licenses/by/4.0/)",
      "source": "https://sketchfab.com/3d-models/cane-sword-project-finished-d776aad75ac94ab4bd72ece42ba59816",
      "title": "Cane Sword Project Finished"
    },
    "generator": "Sketchfab-12.65.0",
    "version": "2.0"
  },
  "bufferViews": [
    {
      "buffer": 0,
      "byteLength": 26196,
      "name": "floatBufferViews",
      "target": 34963
    },
    {
      "buffer": 0,
      "byteLength": 18824,
      "byteOffset": 26196,
      "byteStride": 8,
      "name": "floatBufferViews",
      "target": 34962
    },
    {
      "buffer": 0,
      "byteLength": 56472,
      "byteOffset": 45020,
      "byteStride": 12,
      "name": "floatBufferViews",
      "target": 34962
    },
    {
      "buffer": 0,
      "byteLength": 3044,
      "byteOffset": 101492,
      "name": "floatBufferViews"
    },
    {
      "buffer": 0,
      "byteLength": 2064,
      "byteOffset": 104536,
      "byteStride": 12,
      "name": "floatBufferViews"
    },
    {
      "buffer": 0,
      "byteLength": 9424,
      "byteOffset": 106600,
      "byteStride": 16,
      "name": "floatBufferViews"
    }
  ],
  "buffers": [
    {
      "byteLength": 116024,
      "uri": "scene.bin"
    }
  ],
  "images": [
    {
      "uri": "textures/blade_baseColor.png"
    },
    {
      "uri": "textures/blade_metallicRoughness.png"
    }
  ],
  "materials": [
    {
      "doubleSided": true,
      "name": "blade",
      "pbrMetallicRoughness": {
        "baseColorTexture": {
          "index": 0
        },
        "metallicRoughnessTexture": {
          "index": 1
        }
      }
    }
  ],
  "meshes": [
    {
      "name": "cane_blade_0",
      "primitives": [
        {
          "attributes": {
            "NORMAL": 1,
            "POSITION": 0,
            "TEXCOORD_0": 2
          },
          "indices": 3,
          "material": 0,
          "mode": 4
        }
      ]
    },
    {
      "name": "pCylinder1_blade_0",
      "primitives": [
        {
          "attributes": {
            "NORMAL": 5,
            "POSITION": 4,
            "TEXCOORD_0": 6
          },
          "indices": 7,
          "material": 0,
          "mode": 4
        }
      ]
    },
    {
      "name": "pCube1_blade_0",
      "primitives": [
        {
          "attributes": {
            "NORMAL": 9,
            "POSITION": 8,
            "TEXCOORD_0": 10
          },
          "indices": 11,
          "material": 0,
          "mode": 4
        }
      ]
    },
    {
      "name": "pCylinder6_blade_0",
      "primitives": [
        {
          "attributes": {
            "NORMAL": 13,
            "POSITION": 12,
            "TEXCOORD_0": 14
          },
          "indices": 15,
          "material": 0,
          "mode": 4
        }
      ]
    },
    {
      "name": "pCylinder7_blade_0",
      "primitives": [
        {
          "attributes": {
            "NORMAL": 17,
            "POSITION": 16,
            "TEXCOORD_0": 18
          },
          "indices": 19,
          "material": 0,
          "mode": 4
        }
      ]
    },
    {
      "name": "pCube4_blade_0",
      "primitives": [
        {
          "attributes": {
            "NORMAL": 21,
            "POSITION": 20,
            "TEXCOORD_0": 22
          },
          "indices": 23,
          "material": 0,
          "mode": 4
        }
      ]
    },
    {
      "name": "pCube3_blade_0",
      "primitives": [
        {
          "attributes": {
            "NORMAL": 25,
            "POSITION": 24,
            "TEXCOORD_0": 26
          },
          "indices": 27,
          "material": 0,
          "mode": 4
        }
      ]
    }
  ],
  "nodes": [
    {
      "children": [
        1
      ],
      "matrix": [
        1.0,
        0.0,
        0.0,
        0.0,
        0.0,
        2.220446049250313e-16,
        -1.0,
        0.0,
        0.0,
        1.0,
        2.220446049250313e-16,
        0.0,
        0.0,
        0.0,
        0.0,
        1.0
      ],
      "name": "Sketchfab_model"
    },
    {
      "children": [
        2
      ],
      "matrix": [
        1.0,
        0.0,
        0.0,
        0.0,
        0.0,
        0.0,
        1.0,
        0.0,
        0.0,
        -1.0,
        0.0,
        0.0,
        0.0,
        0.0,
        0.0,
        1.0
      ],
      "name": "Cane_sword.fbx"
    },
    {
      "children": [
        3
      ],
      "name": "Object_2"
    },
    {
      "children": [
        4,
        5,
        6,
        7,
        9,
        11,
        13,
        27,
        30
      ],
      "name": "RootNode"
    },
    {
      "name": "group"
    },
    {
      "name": "group1"
    },
    {
      "name": "group2"
    },
    {
      "children": [
        8
      ],
      "name": "cane",
      "scale": [
        0.16012097895145416,
        2.9972097873687744,
        0.16012097895145416
      ],
      "translation": [
        0.5877548456192017,
        3.2650814056396484,
        -1.4205327033996582
      ]
    },
    {
      "mesh": 0,
      "name": "cane_blade_0"
    },
    {
      "children": [
        10
      ],
      "name": "pCylinder4",
      "rotation": [
        0.7071068286895752,
        0.0,
        0.0,
        0.7071068286895752
      ],
      "scale": [
        0.010863136500120163,
        0.01945921964943409,
        0.010863136500120163
      ],
      "translation": [
        0.6383854150772095,
        6.271471977233887,
        -1.1876522302627563
      ]
    },
    {
      "name": "transform1"
    },
    {
      "children": [
        12
      ],
      "name": "pCylinder5",
      "rotation": [
        -0.7071068286895752,
        0.0,
        0.0,
        0.7071068286895752
      ],
      "scale": [
        0.010863136500120163,
        0.01945921964943409,
        0.010863136500120163
      ],
      "translation": [
        0.6383854150772095,
        6.271471977233887,
        -1.2265619039535522
      ]
    },
    {
      "name": "transform2"
    },
    {
      "children": [
        14,
        23,
        25
      ],
      "name": "group3",
      "rotation": [
        0.006093527656048536,
        -0.0005532208015210927,
        2.88435876427684e-06,
        0.9999812841415405
      ],
      "translation": [
        0.5991910696029663,
        6.025082588195801,
        -1.360419750213623
      ]
    },
    {
      "children": [
        15,
        17,
        19,
        21
      ],
      "name": "sword",
      "rotation": [
        -8.673617379884035e-19,
        -7.346839692639297e-40,
        8.470329472543003e-22,
        1.0
      ],
      "translation": [
        -0.5910438299179077,
        -6.246749401092529,
        1.3695664405822754
      ]
    },
    {
      "children": [
        16
      ],
      "name": "pCylinder1",
      "rotation": [
        -9.028129105874691e-22,
        0.7071068286895752,
        9.028129105874691e-22,
        0.7071068286895752
      ],
      "scale": [
        0.16585463285446167,
        0.16585463285446167,
        0.16585463285446167
      ],
      "translation": [
        0.5967773199081421,
        6.6407976150512695,
        -1.426066279411316
      ]
    },
    {
      "mesh": 1,
      "name": "pCylinder1_blade_0"
    },
    {
      "children": [
        18
      ],
      "name": "pCube1",
      "rotation": [
        -8.673617379884035e-19,
        -8.697433202189144e-20,
        1.3589739378420538e-21,
        1.0
      ],
      "scale": [
        0.6232885718345642,
        1.0,
        0.3734598755836487
      ],
      "translation": [
        0.59405517578125,
        3.598984479904175,
        -1.419451355934143
      ]
    },
    {
      "mesh": 2,
      "name": "pCube1_blade_0"
    },
    {
      "children": [
        20
      ],
      "name": "pCylinder6",
      "rotation": [
        -8.673617379884035e-19,
        -7.346839692639297e-40,
        8.470329472543003e-22,
        1.0
      ],
      "scale": [
        1.0,
        1.0,
        1.1276580095291138
      ],
      "translation": [
        0.6383854150772095,
        6.271471977233887,
        -1.4212610721588135
      ]
    },
    {
      "mesh": 3,
      "name": "pCylinder6_blade_0"
    },
    {
      "children": [
        22
      ],
      "name": "pCylinder7",
      "rotation": [
        -8.673617379884035e-19,
        -7.346839692639297e-40,
        8.470329472543003e-22,
        1.0
      ],
      "scale": [
        1.0,
        1.0,
        1.1276580095291138
      ],
      "translation": [
        0.5475397706031799,
        6.271471977233887,
        -1.4212610721588135
      ]
    },
    {
      "mesh": 4,
      "name": "pCylinder7_blade_0"
    },
    {
      "children": [
        24
      ],
      "name": "pCube4",
      "rotation": [
        0.005307416431605816,
        0.999985933303833,
        -6.123340142044246e-17,
        3.718505463848893e-20
      ],
      "scale": [
        0.1496790498495102,
        0.7909936904907227,
        0.078406423330307
      ],
      "translation": [
        0.04751565307378769,
        0.024722469970583916,
        -0.004264832008630037
      ]
    },
    {
      "mesh": 5,
      "name": "pCube4_blade_0"
    },
    {
      "children": [
        26
      ],
      "name": "pCube3",
      "rotation": [
        1.0961520372047517e-18,
        -1.0939905625653624e-19,
        -0.0036793267354369164,
        0.9999933242797852
      ],
      "scale": [
        0.1286243200302124,
        0.7909936904907227,
        0.078406423330307
      ],
      "translation": [
        -0.04280189424753189,
        0.024722469970583916,
        -0.004264832008630037
      ]
    },
    {
      "mesh": 6,
      "name": "pCube3_blade_0"
    },
    {
      "children": [
        28
      ],
      "name": "ambientLight1",
      "translation": [
        0.0,
        0.2310875505208969,
        0.0
      ]
    },
    {
      "children": [
        29
      ],
      "matrix": [
        1.0,
        0.0,
        0.0,
        0.0,
        0.0,
        2.220446049250313e-16,
        1.0,
        0.0,
        0.0,
        -1.0,
        2.220446049250313e-16,
        0.0,
        0.0,
        0.0,
        0.0,
        1.0
      ],
      "name": "Object_28"
    },
    {
      "name": "Object_29"
    },
    {
      "children": [
        31
      ],
      "name": "directionalLight1",
      "rotation": [
        0.524720311164856,
        -0.2958317697048187,
        0.025187253952026367,
        0.7978206276893616
      ],
      "translation": [
        -8.964869499206543,
        12.300026893615723,
        7.6690897941589355
      ]
    },
    {
      "children": [
        32
      ],
      "matrix": [
        1.0,
        0.0,
        0.0,
        0.0,
        0.0,
        2.220446049250313e-16,
        1.0,
        0.0,
        0.0,
        -1.0,
        2.220446049250313e-16,
        0.0,
        0.0,
        0.0,
        0.0,
        1.0
      ],
      "name": "Object_31"
    },
    {
      "name": "Object_32"
    }
  ],
  "samplers": [
    {
      "magFilter": 9729,
      "minFilter": 9987,
      "wrapS": 10497,
      "wrapT": 10497
    }
  ],
  "scene": 0,
  "scenes": [
    {
      "name": "Sketchfab_Scene",
      "nodes": [
        0
      ]
    }
  ],
  "textures": [
    {
      "sampler": 0,
      "source": 0
    },
    {
      "sampler": 0,
      "source": 1
    }
  ]
}
