{
  "accessors": [
    {
      "bufferView": 2,
      "componentType": 5126,
      "count": 472,
      "max": [
        770.96044921875,
        337.510009765625,
        577.404052734375
      ],
      "min": [
        -314.4547119140625,
        8.90000057220459,
        -683.4545288085938
      ],
      "type": "VEC3"
    },
    {
      "bufferView": 2,
      "byteOffset": 5664,
      "componentType": 5126,
      "count": 472,
      "max": [
        1.0,
        3.903979177266592e-06,
        1.0
      ],
      "min": [
        -1.0,
        -2.7165504434378818e-05,
        -1.0
      ],
      "type": "VEC3"
    },
    {
      "bufferView": 3,
      "componentType": 5126,
      "count": 472,
      "max": [
        1.0,
        1.0,
        6.530816608574241e-05,
        1.0
      ],
      "min": [
        -1.0,
        -1.0,
        -1.0,
        -1.0
      ],
      "type": "VEC4"
    },
    {
      "bufferView": 1,
      "componentType": 5126,
      "count": 472,
      "max": [
        5.697537422180176,
        1.4641461372375488
      ],
      "min": [
        -0.0018778186058625579,
        -0.005433398298919201
      ],
      "type": "VEC2"
    },
    {
      "bufferView": 1,
      "byteOffset": 3776,
      "componentType": 5126,
      "count": 472,
      "max": [
        5.697537422180176,
        1.4641461372375488
      ],
      "min": [
        -0.0018778186058625579,
        -0.005433398298919201
      ],
      "type": "VEC2"
    },
    {
      "bufferView": 0,
      "componentType": 5125,
      "count": 924,
      "type": "SCALAR"
    },
    {
      "bufferView": 2,
      "byteOffset": 11328,
      "componentType": 5126,
      "count": 428,
      "max": [
        767.9557495117188,
        235.65673828125,
        574.4002075195313
      ],
      "min": [
        -311.453369140625,
        8.90000057220459,
        -680.4505615234375
      ],
      "type": "VEC3"
    },
    {
      "bufferView": 2,
      "byteOffset": 16464,
      "componentType": 5126,
      "count": 428,
      "max": [
        1.0,
        7.454107162629953e-06,
        1.0
      ],
      "min": [
        -1.0,
        -1.0,
        -1.0
      ],
      "type": "VEC3"
    },
    {
      "bufferView": 3,
      "byteOffset": 7552,
      "componentType": 5126,
      "count": 428,
      "max": [
        1.0,
        5.718746933780494e-07,
        1.0,
        1.0
      ],
      "min": [
        -1.0,
        -3.0517576306010596e-06,
        -1.0,
        -1.0
      ],
      "type": "VEC4"
    },
    {
      "bufferView": 1,
      "byteOffset": 7552,
      "componentType": 5126,
      "count": 428,
      "max": [
        5.697537422180176,
        1.003519058227539
      ],
      "min": [
        -0.0021259374916553497,
        -0.005433398298919201
      ],
      "type": "VEC2"
    },
    {
      "bufferView": 1,
      "byteOffset": 10976,
      "componentType": 5126,
      "count": 428,
      "max": [
        5.697537422180176,
        1.003519058227539
      ],
      "min": [
        -0.0021259374916553497,
        -0.005433398298919201
      ],
      "type": "VEC2"
    },
    {
      "bufferView": 0,
      "byteOffset": 3696,
      "componentType": 5125,
      "count": 963,
      "type": "SCALAR"
    },
    {
      "bufferView": 2,
      "byteOffset": 21600,
      "componentType": 5126,
      "count": 128,
      "max": [
        780.9557495117188,
        8.90000057220459,
        587.3992919921875
      ],
      "min": [
        -324.4499816894531,
        0.0,
        -693.4497680664063
      ],
      "type": "VEC3"
    },
    {
      "bufferView": 2,
      "byteOffset": 23136,
      "componentType": 5126,
      "count": 128,
      "max": [
        1.0,
        1.0,
        1.0
      ],
      "min": [
        -1.0,
        0.0,
        -1.0
      ],
      "type": "VEC3"
    },
    {
      "bufferView": 3,
      "byteOffset": 14400,
      "componentType": 5126,
      "count": 128,
      "max": [
        1.0,
        1.0,
        4.813304985873401e-05,
        -1.0
      ],
      "min": [
        -1.0,
        -1.0,
        -0.0014930800534784794,
        -1.0
      ],
      "type": "VEC4"
    },
    {
      "bufferView": 1,
      "byteOffset": 14400,
      "componentType": 5126,
      "count": 128,
      "max": [
        0.8668719530105591,
        0.9999068379402161
      ],
      "min": [
        9.309229062637314e-05,
        9.309229062637314e-05
      ],
      "type": "VEC2"
    },
    {
      "bufferView": 1,
      "byteOffset": 15424,
      "componentType": 5126,
      "count": 128,
      "max": [
        0.8668719530105591,
        0.9999068379402161
      ],
      "min": [
        9.309229062637314e-05,
        9.309229062637314e-05
      ],
      "type": "VEC2"
    },
    {
      "bufferView": 0,
      "byteOffset": 7548,
      "componentType": 5125,
      "count": 192,
      "type": "SCALAR"
    },
    {
      "bufferView": 2,
      "byteOffset": 24672,
      "componentType": 5126,
      "count": 16,
      "max": [
        769.5216674804688,
        8.90000057220459,
        575.9652099609375
      ],
      "min": [
        -313.0158996582031,
        8.90000057220459,
        -682.0156860351563
      ],
      "type": "VEC3"
    },
    {
      "bufferView": 2,
      "byteOffset": 24864,
      "componentType": 5126,
      "count": 16,
      "max": [
        3.3046892999877286e-10,
        1.0,
        0.0
      ],
      "min": [
        3.3046892999877286e-10,
        1.0,
        0.0
      ],
      "type": "VEC3"
    },
    {
      "bufferView": 3,
      "byteOffset": 16448,
      "componentType": 5126,
      "count": 16,
      "max": [
        4.2295152979932027e-07,
        1.5382549779545602e-16,
        1.0,
        -1.0
      ],
      "min": [
        -4.654764040878945e-07,
        -1.3977236093267012e-16,
        1.0,
        -1.0
      ],
      "type": "VEC4"
    },
    {
      "bufferView": 1,
      "byteOffset": 16448,
      "componentType": 5126,
      "count": 16,
      "max": [
        1.8747220039367676,
        2.3894097805023193
      ],
      "min": [
        -1.1247217655181885,
        0.08939504623413086
      ],
      "type": "VEC2"
    },
    {
      "bufferView": 1,
      "byteOffset": 16576,
      "componentType": 5126,
      "count": 16,
      "max": [
        1.8747220039367676,
        2.3894097805023193
      ],
      "min": [
        -1.1247217655181885,
        0.08939504623413086
      ],
      "type": "VEC2"
    },
    {
      "bufferView": 0,
      "byteOffset": 8316,
      "componentType": 5125,
      "count": 36,
      "type": "SCALAR"
    },
    {
      "bufferView": 2,
      "byteOffset": 25056,
      "componentType": 5126,
      "count": 204,
      "max": [
        780.9557495117188,
        341.4969482421875,
        587.3992919921875
      ],
      "min": [
        -324.4499816894531,
        229.51002502441406,
        -693.4497680664063
      ],
      "type": "VEC3"
    },
    {
      "bufferView": 2,
      "byteOffset": 27504,
      "componentType": 5126,
      "count": 204,
      "max": [
        1.0,
        0.9445231556892395,
        1.0
      ],
      "min": [
        -1.0,
        -0.9430659413337708,
        -1.0
      ],
      "type": "VEC3"
    },
    {
      "bufferView": 3,
      "byteOffset": 16704,
      "componentType": 5126,
      "count": 204,
      "max": [
        1.0,
        0.9999945759773254,
        0.9999995231628418,
        1.0
      ],
      "min": [
        -0.11394859105348587,
        -0.9680846929550171,
        -0.0206601545214653,
        -1.0
      ],
      "type": "VEC4"
    },
    {
      "bufferView": 1,
      "byteOffset": 16704,
      "componentType": 5126,
      "count": 204,
      "max": [
        3.943887710571289,
        1.8023900985717773
      ],
      "min": [
        -3.3435065746307373,
        -1.3289437294006348
      ],
      "type": "VEC2"
    },
    {
      "bufferView": 1,
      "byteOffset": 18336,
      "componentType": 5126,
      "count": 204,
      "max": [
        3.943887710571289,
        1.8023900985717773
      ],
      "min": [
        -3.3435065746307373,
        -1.3289437294006348
      ],
      "type": "VEC2"
    },
    {
      "bufferView": 0,
      "byteOffset": 8460,
      "componentType": 5125,
      "count": 324,
      "type": "SCALAR"
    },
    {
      "bufferView": 2,
      "byteOffset": 29952,
      "componentType": 5126,
      "count": 16,
      "max": [
        770.9557495117188,
        234.510009765625,
        577.3992919921875
      ],
      "min": [
        -314.45001220703125,
        234.40000915527344,
        -683.4497680664063
      ],
      "type": "VEC3"
    },
    {
      "bufferView": 2,
      "byteOffset": 30144,
      "componentType": 5126,
      "count": 16,
      "max": [
        -1.8768234440358356e-05,
        -1.0,
        1.8865442825699574e-06
      ],
      "min": [
        -1.8768234440358356e-05,
        -1.0,
        1.8865442825699574e-06
      ],
      "type": "VEC3"
    },
    {
      "bufferView": 3,
      "byteOffset": 19968,
      "componentType": 5126,
      "count": 16,
      "max": [
        -1.0,
        1.876823625934776e-05,
        7.370344405899232e-07,
        -1.0
      ],
      "min": [
        -1.0,
        1.8768232621368952e-05,
        -8.842171723699721e-07,
        -1.0
      ],
      "type": "VEC4"
    },
    {
      "bufferView": 1,
      "byteOffset": 19968,
      "componentType": 5126,
      "count": 16,
      "max": [
        5.108929634094238,
        1.7199811935424805
      ],
      "min": [
        0.0005505084991455078,
        -4.21410608291626
      ],
      "type": "VEC2"
    },
    {
      "bufferView": 1,
      "byteOffset": 20096,
      "componentType": 5126,
      "count": 16,
      "max": [
        5.108929634094238,
        1.7199811935424805
      ],
      "min": [
        0.0005505084991455078,
        -4.21410608291626
      ],
      "type": "VEC2"
    },
    {
      "bufferView": 0,
      "byteOffset": 9756,
      "componentType": 5125,
      "count": 39,
      "type": "SCALAR"
    },
    {
      "bufferView": 2,
      "byteOffset": 30336,
      "componentType": 5126,
      "count": 1962,
      "max": [
        774.5022583007813,
        185.25,
        580.94580078125
      ],
      "min": [
        -317.99652099609375,
        8.899998664855957,
        -686.996337890625
      ],
      "type": "VEC3"
    },
    {
      "bufferView": 2,
      "byteOffset": 53880,
      "componentType": 5126,
      "count": 1962,
      "max": [
        1.0,
        1.0,
        1.0
      ],
      "min": [
        -1.0,
        -1.0,
        -1.0
      ],
      "type": "VEC3"
    },
    {
      "bufferView": 3,
      "byteOffset": 20224,
      "componentType": 5126,
      "count": 1962,
      "max": [
        1.0,
        1.0,
        1.0,
        1.0
      ],
      "min": [
        -1.0,
        -1.0,
        -1.0,
        1.0
      ],
      "type": "VEC4"
    },
    {
      "bufferView": 1,
      "byteOffset": 20224,
      "componentType": 5126,
      "count": 1962,
      "max": [
        6.113691806793213,
        6.113691806793213
      ],
      "min": [
        0.0,
        0.0
      ],
      "type": "VEC2"
    },
    {
      "bufferView": 1,
      "byteOffset": 35920,
      "componentType": 5126,
      "count": 1962,
      "max": [
        6.113691806793213,
        6.113691806793213
      ],
      "min": [
        0.0,
        0.0
      ],
      "type": "VEC2"
    },
    {
      "bufferView": 0,
      "byteOffset": 9912,
      "componentType": 5125,
      "count": 3546,
      "type": "SCALAR"
    }
  ],
  "asset": {
    "extras": {
      "author": "Lodgelus (https://sketchfab.com/lodgelus)",
      "license": "CC-BY-4.0 (http://creativecommons.org/licenses/by/4.0/)",
      "source": "https://sketchfab.com/3d-models/single-story-house-textured-with-interior-62c6fecff4ee4e24abb4080ff533e707",
      "title": "Single Story House: Textured with Interior"
    },
    "generator": "Sketchfab-12.66.0",
    "version": "2.0"
  },
  "bufferViews": [
    {
      "buffer": 0,
      "byteLength": 24096,
      "name": "floatBufferViews",
      "target": 34963
    },
    {
      "buffer": 0,
      "byteLength": 51616,
      "byteOffset": 24096,
      "byteStride": 8,
      "name": "floatBufferViews",
      "target": 34962
    },
    {
      "buffer": 0,
      "byteLength": 77424,
      "byteOffset": 75712,
      "byteStride": 12,
      "name": "floatBufferViews",
      "target": 34962
    },
    {
      "buffer": 0,
      "byteLength": 51616,
      "byteOffset": 153136,
      "byteStride": 16,
      "name": "floatBufferViews",
      "target": 34962
    }
  ],
  "buffers": [
    {
      "byteLength": 204752,
      "uri": "scene.bin"
    }
  ],
  "extensionsRequired": [
    "KHR_materials_pbrSpecularGlossiness"
  ],
  "extensionsUsed": [
    "KHR_materials_pbrSpecularGlossiness"
  ],
  "images": [
    {
      "uri": "textures/exterior_diffuse.png"
    },
    {
      "uri": "textures/exterior_specularGlossiness.png"
    },
    {
      "uri": "textures/exterior_normal.png"
    },
    {
      "uri": "textures/exterior_occlusion.png"
    },
    {
      "uri": "textures/interior_diffuse.png"
    },
    {
      "uri": "textures/interior_specularGlossiness.png"
    },
    {
      "uri": "textures/interior_normal.png"
    },
    {
      "uri": "textures/interior_occlusion.png"
    },
    {
      "uri": "textures/trim_diffuse.png"
    },
    {
      "uri": "textures/trim_specularGlossiness.png"
    },
    {
      "uri": "textures/trim_normal.png"
    },
    {
      "uri": "textures/trim_occlusion.png"
    },
    {
      "uri": "textures/floor_diffuse.png"
    },
    {
      "uri": "textures/floor_specularGlossiness.png"
    },
    {
      "uri": "textures/floor_normal.png"
    },
    {
      "uri": "textures/floor_occlusion.png"
    },
    {
      "uri": "textures/roof_diffuse.png"
    },
    {
      "uri": "textures/roof_specularGlossiness.png"
    },
    {
      "uri": "textures/roof_normal.png"
    },
    {
      "uri": "textures/roof_occlusion.png"
    },
    {
      "uri": "textures/ceiling_diffuse.png"
    },
    {
      "uri": "textures/ceiling_specularGlossiness.png"
    },
    {
      "uri": "textures/ceiling_normal.png"
    },
    {
      "uri": "textures/ceiling_occlusion.png"
    }
  ],
  "materials": [
    {
      "extensions": {
        "KHR_materials_pbrSpecularGlossiness": {
          "diffuseFactor": [
            1.0,
            1.0,
            1.0,
            1.0
          ],
          "diffuseTexture": {
            "index": 0
          },
          "glossinessFactor": 1.0,
          "specularFactor": [
            1.0,
            1.0,
            1.0
          ],
          "specularGlossinessTexture": {
            "index": 1
          }
        }
      },
      "name": "exterior",
      "normalTexture": {
        "index": 2
      },
      "occlusionTexture": {
        "index": 3
      }
    },
    {
      "extensions": {
        "KHR_materials_pbrSpecularGlossiness": {
          "diffuseFactor": [
            1.0,
            1.0,
            1.0,
            1.0
          ],
          "diffuseTexture": {
            "index": 4
          },
          "glossinessFactor": 1.0,
          "specularFactor": [
            1.0,
            1.0,
            1.0
          ],
          "specularGlossinessTexture": {
            "index": 5
          }
        }
      },
      "name": "interior",
      "normalTexture": {
        "index": 6
      },
      "occlusionTexture": {
        "index": 7
      }
    },
    {
      "extensions": {
        "KHR_materials_pbrSpecularGlossiness": {
          "diffuseFactor": [
            1.0,
            1.0,
            1.0,
            1.0
          ],
          "diffuseTexture": {
            "index": 8
          },
          "glossinessFactor": 1.0,
          "specularFactor": [
            1.0,
            1.0,
            1.0
          ],
          "specularGlossinessTexture": {
            "index": 9
          }
        }
      },
      "name": "trim",
      "normalTexture": {
        "index": 10
      },
      "occlusionTexture": {
        "index": 11
      }
    },
    {
      "extensions": {
        "KHR_materials_pbrSpecularGlossiness": {
          "diffuseFactor": [
            1.0,
            1.0,
            1.0,
            1.0
          ],
          "diffuseTexture": {
            "index": 12
          },
          "glossinessFactor": 1.0,
          "specularFactor": [
            1.0,
            1.0,
            1.0
          ],
          "specularGlossinessTexture": {
            "index": 13
          }
        }
      },
      "name": "floor",
      "normalTexture": {
        "index": 14
      },
      "occlusionTexture": {
        "index": 15
      }
    },
    {
      "extensions": {
        "KHR_materials_pbrSpecularGlossiness": {
          "diffuseFactor": [
            1.0,
            1.0,
            1.0,
            1.0
          ],
          "diffuseTexture": {
            "index": 16
          },
          "glossinessFactor": 1.0,
          "specularFactor": [
            1.0,
            1.0,
            1.0
          ],
          "specularGlossinessTexture": {
            "index": 17
          }
        }
      },
      "name": "roof",
      "normalTexture": {
        "index": 18
      },
      "occlusionTexture": {
        "index": 19
      }
    },
    {
      "extensions": {
        "KHR_materials_pbrSpecularGlossiness": {
          "diffuseFactor": [
            1.0,
            1.0,
            1.0,
            1.0
          ],
          "diffuseTexture": {
            "index": 20
          },
          "glossinessFactor": 1.0,
          "specularFactor": [
            1.0,
            1.0,
            1.0
          ],
          "specularGlossinessTexture": {
            "index": 21
          }
        }
      },
      "name": "ceiling",
      "normalTexture": {
        "index": 22
      },
      "occlusionTexture": {
        "index": 23
      }
    }
  ],
  "meshes": [
    {
      "name": "building_exterior_exterior_0",
      "primitives": [
        {
          "attributes": {
            "NORMAL": 1,
            "POSITION": 0,
            "TANGENT": 2,
            "TEXCOORD_0": 3,
            "TEXCOORD_1": 4
          },
          "indices": 5,
          "material": 0,
          "mode": 4
        }
      ]
    },
    {
      "name": "building_exterior_interior_0",
      "primitives": [
        {
          "attributes": {
            "NORMAL": 7,
            "POSITION": 6,
            "TANGENT": 8,
            "TEXCOORD_0": 9,
            "TEXCOORD_1": 10
          },
          "indices": 11,
          "material": 1,
          "mode": 4
        }
      ]
    },
    {
      "name": "building_floor_trim_0",
      "primitives": [
        {
          "attributes": {
            "NORMAL": 13,
            "POSITION": 12,
            "TANGENT": 14,
            "TEXCOORD_0": 15,
            "TEXCOORD_1": 16
          },
          "indices": 17,
          "material": 2,
          "mode": 4
        }
      ]
    },
    {
      "name": "building_floor_floor_0",
      "primitives": [
        {
          "attributes": {
            "NORMAL": 19,
            "POSITION": 18,
            "TANGENT": 20,
            "TEXCOORD_0": 21,
            "TEXCOORD_1": 22
          },
          "indices": 23,
          "material": 3,
          "mode": 4
        }
      ]
    },
    {
      "name": "building_roof_roof_0",
      "primitives": [
        {
          "attributes": {
            "NORMAL": 25,
            "POSITION": 24,
            "TANGENT": 26,
            "TEXCOORD_0": 27,
            "TEXCOORD_1": 28
          },
          "indices": 29,
          "material": 4,
          "mode": 4
        }
      ]
    },
    {
      "name": "building_roof_ceiling_0",
      "primitives": [
        {
          "attributes": {
            "NORMAL": 31,
            "POSITION": 30,
            "TANGENT": 32,
            "TEXCOORD_0": 33,
            "TEXCOORD_1": 34
          },
          "indices": 35,
          "material": 5,
          "mode": 4
        }
      ]
    },
    {
      "name": "building_windows_trim_0",
      "primitives": [
        {
          "attributes": {
            "NORMAL": 37,
            "POSITION": 36,
            "TANGENT": 38,
            "TEXCOORD_0": 39,
            "TEXCOORD_1": 40
          },
          "indices": 41,
          "material": 2,
          "mode": 4
        }
      ]
    }
  ],
  "nodes": [
    {
      "children": [
        1
      ],
      "matrix": [
        1.0,
        5.356124287284811e-32,
        -1.6081226229577292e-16,
        0.0,
        -1.6081226229577292e-16,
        3.828568672208042e-16,
        -1.0,
        0.0,
        8.006836424271825e-33,
        1.0,
        3.828568672208042e-16,
        0.0,
        3.410605131648481e-13,
        -3.410605131648481e-13,
        -7.573064690121713e-29,
        1.0
      ],
      "name": "Sketchfab_model"
    },
    {
      "children": [
        2
      ],
      "matrix": [
        1.0,
        0.0,
        0.0,
        0.0,
        0.0,
        0.0,
        1.0,
        0.0,
        0.0,
        -1.0,
        0.0,
        0.0,
        0.0,
        0.0,
        0.0,
        1.0
      ],
      "name": "958d8a0fb6ac487abf69ca317882421e.fbx"
    },
    {
      "children": [
        3,
        6,
        9,
        12
      ],
      "name": "RootNode"
    },
    {
      "children": [
        4,
        5
      ],
      "matrix": [
        1.0,
        0.0,
        0.0,
        0.0,
        0.0,
        1.0,
        0.0,
        0.0,
        0.0,
        0.0,
        1.0,
        0.0,
        0.0,
        0.0,
        -2000.0,
        1.0
      ],
      "name": "building_exterior"
    },
    {
      "mesh": 0,
      "name": "building_exterior_exterior_0"
    },
    {
      "mesh": 1,
      "name": "building_exterior_interior_0"
    },
    {
      "children": [
        7,
        8
      ],
      "matrix": [
        1.0,
        0.0,
        0.0,
        0.0,
        0.0,
        1.0,
        0.0,
        0.0,
        0.0,
        0.0,
        1.0,
        0.0,
        0.0,
        0.0,
        -2000.0,
        1.0
      ],
      "name": "building_floor"
    },
    {
      "mesh": 2,
      "name": "building_floor_trim_0"
    },
    {
      "mesh": 3,
      "name": "building_floor_floor_0"
    },
    {
      "children": [
        10,
        11
      ],
      "matrix": [
        1.0,
        0.0,
        0.0,
        0.0,
        0.0,
        1.0,
        0.0,
        0.0,
        0.0,
        0.0,
        1.0,
        0.0,
        0.0,
        0.0,
        -2000.0,
        1.0
      ],
      "name": "building_roof"
    },
    {
      "mesh": 4,
      "name": "building_roof_roof_0"
    },
    {
      "mesh": 5,
      "name": "building_roof_ceiling_0"
    },
    {
      "children": [
        13
      ],
      "matrix": [
        1.0,
        0.0,
        0.0,
        0.0,
        0.0,
        1.0,
        0.0,
        0.0,
        0.0,
        0.0,
        1.0,
        0.0,
        0.0,
        0.0,
        -2000.0,
        1.0
      ],
      "name": "building_windows"
    },
    {
      "mesh": 6,
      "name": "building_windows_trim_0"
    }
  ],
  "samplers": [
    {
      "magFilter": 9729,
      "minFilter": 9987,
      "wrapS": 10497,
      "wrapT": 10497
    }
  ],
  "scene": 0,
  "scenes": [
    {
      "name": "Sketchfab_Scene",
      "nodes": [
        0
      ]
    }
  ],
  "textures": [
    {
      "sampler": 0,
      "source": 0
    },
    {
      "sampler": 0,
      "source": 1
    },
    {
      "sampler": 0,
      "source": 2
    },
    {
      "sampler": 0,
      "source": 3
    },
    {
      "sampler": 0,
      "source": 4
    },
    {
      "sampler": 0,
      "source": 5
    },
    {
      "sampler": 0,
      "source": 6
    },
    {
      "sampler": 0,
      "source": 7
    },
    {
      "sampler": 0,
      "source": 8
    },
    {
      "sampler": 0,
      "source": 9
    },
    {
      "sampler": 0,
      "source": 10
    },
    {
      "sampler": 0,
      "source": 11
    },
    {
      "sampler": 0,
      "source": 12
    },
    {
      "sampler": 0,
      "source": 13
    },
    {
      "sampler": 0,
      "source": 14
    },
    {
      "sampler": 0,
      "source": 15
    },
    {
      "sampler": 0,
      "source": 16
    },
    {
      "sampler": 0,
      "source": 17
    },
    {
      "sampler": 0,
      "source": 18
    },
    {
      "sampler": 0,
      "source": 19
    },
    {
      "sampler": 0,
      "source": 20
    },
    {
      "sampler": 0,
      "source": 21
    },
    {
      "sampler": 0,
      "source": 22
    },
    {
      "sampler": 0,
      "source": 23
    }
  ]
}
