{
  "accessors": [
    {
      "bufferView": 2,
      "componentType": 5126,
      "count": 4,
      "max": [
        4.341508865356445,
        1.6122560501098633,
        4.715987205505371
      ],
      "min": [
        4.341508865356445,
        -1.112259030342102,
        0.5364949703216553
      ],
      "type": "VEC3"
    },
    {
      "bufferView": 2,
      "byteOffset": 48,
      "componentType": 5126,
      "count": 4,
      "max": [
        1.0,
        -0.0,
        0.0
      ],
      "min": [
        1.0,
        -0.0,
        0.0
      ],
      "type": "VEC3"
    },
    {
      "bufferView": 1,
      "componentType": 5126,
      "count": 4,
      "max": [
        4.07954216003418,
        -0.1757570058107376
      ],
      "min": [
        2.447726011276245,
        -0.8242419958114624
      ],
      "type": "VEC2"
    },
    {
      "bufferView": 0,
      "componentType": 5125,
      "count": 6,
      "type": "SCALAR"
    },
    {
      "bufferView": 2,
      "byteOffset": 96,
      "componentType": 5126,
      "count": 9,
      "max": [
        11.999999046325684,
        13.499999046325684,
        0.0
      ],
      "min": [
        -13.09999942779541,
        -13.000000953674316,
        0.0
      ],
      "type": "VEC3"
    },
    {
      "bufferView": 2,
      "byteOffset": 204,
      "componentType": 5126,
      "count": 9,
      "max": [
        0.0,
        -0.0,
        1.0
      ],
      "min": [
        0.0,
        -0.0,
        1.0
      ],
      "type": "VEC3"
    },
    {
      "bufferView": 1,
      "byteOffset": 32,
      "componentType": 5126,
      "count": 9,
      "max": [
        3.2817859649658203,
        0.0
      ],
      "min": [
        0.0,
        -3.063040018081665
      ],
      "type": "VEC2"
    },
    {
      "bufferView": 0,
      "byteOffset": 24,
      "componentType": 5125,
      "count": 24,
      "type": "SCALAR"
    },
    {
      "bufferView": 2,
      "byteOffset": 312,
      "componentType": 5126,
      "count": 2040,
      "max": [
        8.13579273223877,
        8.811306953430176,
        10.097284317016602
      ],
      "min": [
        -8.669124603271484,
        -10.082860946655273,
        -0.3849849998950958
      ],
      "type": "VEC3"
    },
    {
      "bufferView": 2,
      "byteOffset": 24792,
      "componentType": 5126,
      "count": 2040,
      "max": [
        1.0,
        1.0,
        1.0
      ],
      "min": [
        -1.0,
        -1.0,
        -1.0
      ],
      "type": "VEC3"
    },
    {
      "bufferView": 1,
      "byteOffset": 104,
      "componentType": 5126,
      "count": 2040,
      "max": [
        0.5799999833106995,
        -0.41999900341033936
      ],
      "min": [
        0.41999900341033936,
        -0.5799999833106995
      ],
      "type": "VEC2"
    },
    {
      "bufferView": 0,
      "byteOffset": 120,
      "componentType": 5125,
      "count": 3060,
      "type": "SCALAR"
    },
    {
      "bufferView": 2,
      "byteOffset": 49272,
      "componentType": 5126,
      "count": 198,
      "max": [
        10.73613166809082,
        9.877038955688477,
        12.499998092651367
      ],
      "min": [
        -4.623202800750732,
        -4.373207092285156,
        -0.08613300323486328
      ],
      "type": "VEC3"
    },
    {
      "bufferView": 2,
      "byteOffset": 51648,
      "componentType": 5126,
      "count": 198,
      "max": [
        1.0,
        1.0,
        1.0
      ],
      "min": [
        -1.0,
        -1.0,
        -1.0
      ],
      "type": "VEC3"
    },
    {
      "bufferView": 1,
      "byteOffset": 16424,
      "componentType": 5126,
      "count": 198,
      "max": [
        1.0,
        0.10652200132608414
      ],
      "min": [
        0.0,
        -1.1457970142364502
      ],
      "type": "VEC2"
    },
    {
      "bufferView": 0,
      "byteOffset": 12360,
      "componentType": 5125,
      "count": 366,
      "type": "SCALAR"
    },
    {
      "bufferView": 2,
      "byteOffset": 54024,
      "componentType": 5126,
      "count": 26,
      "max": [
        5.470962047576904,
        5.568390846252441,
        12.76132583618164
      ],
      "min": [
        -5.471034049987793,
        -5.068373203277588,
        9.2232027053833
      ],
      "type": "VEC3"
    },
    {
      "bufferView": 2,
      "byteOffset": 54336,
      "componentType": 5126,
      "count": 26,
      "max": [
        0.5138484835624695,
        0.6109521389007568,
        1.0
      ],
      "min": [
        -0.5138484835624695,
        -0.6109521389007568,
        -0.9556469917297363
      ],
      "type": "VEC3"
    },
    {
      "bufferView": 1,
      "byteOffset": 18008,
      "componentType": 5126,
      "count": 26,
      "max": [
        1.033041000366211,
        0.033041998744010925
      ],
      "min": [
        -0.03304100036621094,
        -1.033041000366211
      ],
      "type": "VEC2"
    },
    {
      "bufferView": 0,
      "byteOffset": 13824,
      "componentType": 5125,
      "count": 48,
      "type": "SCALAR"
    },
    {
      "bufferView": 2,
      "byteOffset": 54648,
      "componentType": 5126,
      "count": 32,
      "max": [
        3.0585529804229736,
        -4.5355000495910645,
        3.042893886566162
      ],
      "min": [
        -3.058551073074341,
        -7.464501857757568,
        0.03711700066924095
      ],
      "type": "VEC3"
    },
    {
      "bufferView": 2,
      "byteOffset": 55032,
      "componentType": 5126,
      "count": 32,
      "max": [
        1.0,
        1.0,
        0.9738456010818481
      ],
      "min": [
        -1.0,
        -1.0,
        -1.0
      ],
      "type": "VEC3"
    },
    {
      "bufferView": 1,
      "byteOffset": 18216,
      "componentType": 5126,
      "count": 32,
      "max": [
        0.8058549761772156,
        -0.34971100091934204
      ],
      "min": [
        0.19414399564266205,
        -0.6502879858016968
      ],
      "type": "VEC2"
    },
    {
      "bufferView": 0,
      "byteOffset": 14016,
      "componentType": 5125,
      "count": 60,
      "type": "SCALAR"
    },
    {
      "bufferView": 2,
      "byteOffset": 55416,
      "componentType": 5126,
      "count": 16,
      "max": [
        4.124986171722412,
        6.561147212982178,
        4.932376861572266
      ],
      "min": [
        -7.490843772888184,
        -5.824828147888184,
        -0.5004349946975708
      ],
      "type": "VEC3"
    },
    {
      "bufferView": 2,
      "byteOffset": 55608,
      "componentType": 5126,
      "count": 16,
      "max": [
        0.09100459516048431,
        0.04210314899682999,
        0.5106381773948669
      ],
      "min": [
        -0.9610592126846313,
        -0.9558483362197876,
        -0.2794141173362732
      ],
      "type": "VEC3"
    },
    {
      "bufferView": 1,
      "byteOffset": 18472,
      "componentType": 5126,
      "count": 16,
      "max": [
        1.0,
        0.0
      ],
      "min": [
        0.0,
        -0.9999989867210388
      ],
      "type": "VEC2"
    },
    {
      "bufferView": 0,
      "byteOffset": 14256,
      "componentType": 5125,
      "count": 24,
      "type": "SCALAR"
    },
    {
      "bufferView": 2,
      "byteOffset": 55800,
      "componentType": 5126,
      "count": 1168,
      "max": [
        8.654570579528809,
        9.26308536529541,
        13.086807250976563
      ],
      "min": [
        -7.295682907104492,
        -8.91279125213623,
        -0.23823300004005432
      ],
      "type": "VEC3"
    },
    {
      "bufferView": 2,
      "byteOffset": 69816,
      "componentType": 5126,
      "count": 1168,
      "max": [
        1.0,
        1.0,
        1.0
      ],
      "min": [
        -1.0,
        -1.0,
        -1.0
      ],
      "type": "VEC3"
    },
    {
      "bufferView": 1,
      "byteOffset": 18600,
      "componentType": 5126,
      "count": 1168,
      "max": [
        1.0000029802322388,
        0.03498699888586998
      ],
      "min": [
        -3.000000106112566e-06,
        -1.034986972808838
      ],
      "type": "VEC2"
    },
    {
      "bufferView": 0,
      "byteOffset": 14352,
      "componentType": 5125,
      "count": 2208,
      "type": "SCALAR"
    },
    {
      "bufferView": 2,
      "byteOffset": 83832,
      "componentType": 5126,
      "count": 252,
      "max": [
        10.581608772277832,
        12.037487030029297,
        14.604349136352539
      ],
      "min": [
        9.418391227722168,
        5.962518215179443,
        1.3956509828567505
      ],
      "type": "VEC3"
    },
    {
      "bufferView": 2,
      "byteOffset": 86856,
      "componentType": 5126,
      "count": 252,
      "max": [
        1.0,
        1.0,
        1.0
      ],
      "min": [
        -1.0,
        -1.0,
        -1.0
      ],
      "type": "VEC3"
    },
    {
      "bufferView": 1,
      "byteOffset": 27944,
      "componentType": 5126,
      "count": 252,
      "max": [
        0.8030250072479248,
        0.7216759920120239
      ],
      "min": [
        0.1969739943742752,
        -1.721675992012024
      ],
      "type": "VEC2"
    },
    {
      "bufferView": 0,
      "byteOffset": 23184,
      "componentType": 5125,
      "count": 576,
      "type": "SCALAR"
    },
    {
      "bufferView": 2,
      "byteOffset": 89880,
      "componentType": 5126,
      "count": 144,
      "max": [
        0.7233889698982239,
        -4.276610851287842,
        7.450000762939453
      ],
      "min": [
        -0.7233889698982239,
        -4.52338981628418,
        5.599999904632568
      ],
      "type": "VEC3"
    },
    {
      "bufferView": 2,
      "byteOffset": 91608,
      "componentType": 5126,
      "count": 144,
      "max": [
        1.0,
        1.0,
        1.0
      ],
      "min": [
        -1.0,
        -1.0,
        -1.0
      ],
      "type": "VEC3"
    },
    {
      "bufferView": 1,
      "byteOffset": 29960,
      "componentType": 5126,
      "count": 144,
      "max": [
        0.9288979768753052,
        0.0
      ],
      "min": [
        0.01689700037240982,
        -0.3422139883041382
      ],
      "type": "VEC2"
    },
    {
      "bufferView": 0,
      "byteOffset": 25488,
      "componentType": 5125,
      "count": 384,
      "type": "SCALAR"
    },
    {
      "bufferView": 2,
      "byteOffset": 93336,
      "componentType": 5126,
      "count": 282,
      "max": [
        8.121403694152832,
        10.090422630310059,
        9.65000057220459
      ],
      "min": [
        0.3999989926815033,
        4.756176948547363,
        1.123818039894104
      ],
      "type": "VEC3"
    },
    {
      "bufferView": 2,
      "byteOffset": 96720,
      "componentType": 5126,
      "count": 282,
      "max": [
        1.0,
        1.0,
        1.0
      ],
      "min": [
        -1.0,
        -1.0,
        -1.0
      ],
      "type": "VEC3"
    },
    {
      "bufferView": 1,
      "byteOffset": 31112,
      "componentType": 5126,
      "count": 282,
      "max": [
        1.0,
        0.0
      ],
      "min": [
        0.0,
        -1.0
      ],
      "type": "VEC2"
    },
    {
      "bufferView": 0,
      "byteOffset": 27024,
      "componentType": 5125,
      "count": 528,
      "type": "SCALAR"
    },
    {
      "bufferView": 2,
      "byteOffset": 100104,
      "componentType": 5126,
      "count": 376,
      "max": [
        12.792985916137695,
        13.140291213989258,
        14.00721549987793
      ],
      "min": [
        -0.5639560222625732,
        3.7054340839385986,
        1.7506669759750366
      ],
      "type": "VEC3"
    },
    {
      "bufferView": 2,
      "byteOffset": 104616,
      "componentType": 5126,
      "count": 376,
      "max": [
        0.9978600740432739,
        0.9936082363128662,
        0.9905974864959717
      ],
      "min": [
        -0.9978600740432739,
        -0.9936169981956482,
        -0.9971989989280701
      ],
      "type": "VEC3"
    },
    {
      "bufferView": 1,
      "byteOffset": 33368,
      "componentType": 5126,
      "count": 376,
      "max": [
        3.772671937942505,
        0.0
      ],
      "min": [
        0.04322599992156029,
        -1.6427960395812988
      ],
      "type": "VEC2"
    },
    {
      "bufferView": 0,
      "byteOffset": 29136,
      "componentType": 5125,
      "count": 2064,
      "type": "SCALAR"
    }
  ],
  "asset": {
    "extras": {
      "author": "Karthik Naidu (https://sketchfab.com/Karthik_TS)",
      "license": "CC-BY-4.0 (http://creativecommons.org/licenses/by/4.0/)",
      "source": "https://sketchfab.com/3d-models/abandoned-house-low-poly-9d4146728c4948efb378c02449eb6aea",
      "title": "Abandoned House Low Poly"
    },
    "generator": "Sketchfab-12.68.0",
    "version": "2.0"
  },
  "bufferViews": [
    {
      "buffer": 0,
      "byteLength": 37392,
      "name": "floatBufferViews",
      "target": 34963
    },
    {
      "buffer": 0,
      "byteLength": 36376,
      "byteOffset": 37392,
      "byteStride": 8,
      "name": "floatBufferViews",
      "target": 34962
    },
    {
      "buffer": 0,
      "byteLength": 109128,
      "byteOffset": 73768,
      "byteStride": 12,
      "name": "floatBufferViews",
      "target": 34962
    }
  ],
  "buffers": [
    {
      "byteLength": 182896,
      "uri": "scene.bin"
    }
  ],
  "images": [
    {
      "uri": "textures/Brick_baseColor.jpeg"
    },
    {
      "uri": "textures/Concrete_baseColor.jpeg"
    },
    {
      "uri": "textures/Door_baseColor.jpeg"
    },
    {
      "uri": "textures/Roof_baseColor.jpeg"
    },
    {
      "uri": "textures/Steelold_Green_baseColor.jpeg"
    },
    {
      "uri": "textures/gorund_baseColor.jpeg"
    },
    {
      "uri": "textures/plank_baseColor.jpeg"
    },
    {
      "uri": "textures/rustedmetal_baseColor.jpeg"
    },
    {
      "uri": "textures/steelold_baseColor.jpeg"
    },
    {
      "uri": "textures/wires_baseColor.jpeg"
    }
  ],
  "materials": [
    {
      "doubleSided": true,
      "emissiveTexture": {
        "index": 0
      },
      "name": "Brick",
      "pbrMetallicRoughness": {
        "baseColorTexture": {
          "index": 0
        },
        "metallicFactor": 0.0
      }
    },
    {
      "doubleSided": true,
      "emissiveTexture": {
        "index": 1
      },
      "name": "Concrete",
      "pbrMetallicRoughness": {
        "baseColorTexture": {
          "index": 1
        },
        "metallicFactor": 0.0
      }
    },
    {
      "doubleSided": true,
      "emissiveTexture": {
        "index": 2
      },
      "name": "Door",
      "pbrMetallicRoughness": {
        "baseColorTexture": {
          "index": 2
        },
        "metallicFactor": 0.0
      }
    },
    {
      "doubleSided": true,
      "emissiveTexture": {
        "index": 3
      },
      "name": "Roof",
      "pbrMetallicRoughness": {
        "baseColorTexture": {
          "index": 3
        },
        "metallicFactor": 0.4935063060361584,
        "roughnessFactor": 0.7995380750240642
      }
    },
    {
      "doubleSided": true,
      "emissiveTexture": {
        "index": 4
      },
      "name": "Steelold_Green",
      "pbrMetallicRoughness": {
        "baseColorTexture": {
          "index": 4
        },
        "metallicFactor": 0.1353409565612241,
        "roughnessFactor": 0.7954147460000001
      }
    },
    {
      "doubleSided": true,
      "emissiveTexture": {
        "index": 3
      },
      "name": "corrygatedmetal",
      "pbrMetallicRoughness": {
        "baseColorTexture": {
          "index": 3
        },
        "metallicFactor": 0.40512790523024095,
        "roughnessFactor": 0.8408899768
      }
    },
    {
      "doubleSided": true,
      "emissiveTexture": {
        "index": 5
      },
      "name": "gorund",
      "pbrMetallicRoughness": {
        "baseColorTexture": {
          "index": 5
        },
        "metallicFactor": 0.0
      }
    },
    {
      "doubleSided": true,
      "emissiveTexture": {
        "index": 6
      },
      "name": "plank",
      "pbrMetallicRoughness": {
        "baseColorTexture": {
          "index": 6
        },
        "metallicFactor": 0.0
      }
    },
    {
      "doubleSided": true,
      "emissiveTexture": {
        "index": 7
      },
      "name": "rustedmetal",
      "pbrMetallicRoughness": {
        "baseColorTexture": {
          "index": 7
        },
        "metallicFactor": 0.1958104570529106,
        "roughnessFactor": 0.8981108642
      }
    },
    {
      "doubleSided": true,
      "emissiveTexture": {
        "index": 8
      },
      "name": "steelold",
      "pbrMetallicRoughness": {
        "baseColorTexture": {
          "index": 8
        },
        "metallicFactor": 0.1958104570529106,
        "roughnessFactor": 0.1558611703
      }
    },
    {
      "doubleSided": true,
      "emissiveTexture": {
        "index": 8
      },
      "name": "steelold1",
      "pbrMetallicRoughness": {
        "baseColorTexture": {
          "index": 8
        },
        "metallicFactor": 0.15859848172850963,
        "roughnessFactor": 0.8239459036
      }
    },
    {
      "doubleSided": true,
      "emissiveTexture": {
        "index": 9
      },
      "name": "wires",
      "pbrMetallicRoughness": {
        "baseColorTexture": {
          "index": 9
        },
        "metallicFactor": 0.033008012822111424,
        "roughnessFactor": 0.9198270806
      }
    }
  ],
  "meshes": [
    {
      "name": "Object_0",
      "primitives": [
        {
          "attributes": {
            "NORMAL": 1,
            "POSITION": 0,
            "TEXCOORD_0": 2
          },
          "indices": 3,
          "material": 2,
          "mode": 4
        }
      ]
    },
    {
      "name": "Object_1",
      "primitives": [
        {
          "attributes": {
            "NORMAL": 5,
            "POSITION": 4,
            "TEXCOORD_0": 6
          },
          "indices": 7,
          "material": 6,
          "mode": 4
        }
      ]
    },
    {
      "name": "Object_2",
      "primitives": [
        {
          "attributes": {
            "NORMAL": 9,
            "POSITION": 8,
            "TEXCOORD_0": 10
          },
          "indices": 11,
          "material": 0,
          "mode": 4
        }
      ]
    },
    {
      "name": "Object_3",
      "primitives": [
        {
          "attributes": {
            "NORMAL": 13,
            "POSITION": 12,
            "TEXCOORD_0": 14
          },
          "indices": 15,
          "material": 1,
          "mode": 4
        }
      ]
    },
    {
      "name": "Object_4",
      "primitives": [
        {
          "attributes": {
            "NORMAL": 17,
            "POSITION": 16,
            "TEXCOORD_0": 18
          },
          "indices": 19,
          "material": 3,
          "mode": 4
        }
      ]
    },
    {
      "name": "Object_5",
      "primitives": [
        {
          "attributes": {
            "NORMAL": 21,
            "POSITION": 20,
            "TEXCOORD_0": 22
          },
          "indices": 23,
          "material": 4,
          "mode": 4
        }
      ]
    },
    {
      "name": "Object_6",
      "primitives": [
        {
          "attributes": {
            "NORMAL": 25,
            "POSITION": 24,
            "TEXCOORD_0": 26
          },
          "indices": 27,
          "material": 5,
          "mode": 4
        }
      ]
    },
    {
      "name": "Object_7",
      "primitives": [
        {
          "attributes": {
            "NORMAL": 29,
            "POSITION": 28,
            "TEXCOORD_0": 30
          },
          "indices": 31,
          "material": 7,
          "mode": 4
        }
      ]
    },
    {
      "name": "Object_8",
      "primitives": [
        {
          "attributes": {
            "NORMAL": 33,
            "POSITION": 32,
            "TEXCOORD_0": 34
          },
          "indices": 35,
          "material": 8,
          "mode": 4
        }
      ]
    },
    {
      "name": "Object_9",
      "primitives": [
        {
          "attributes": {
            "NORMAL": 37,
            "POSITION": 36,
            "TEXCOORD_0": 38
          },
          "indices": 39,
          "material": 9,
          "mode": 4
        }
      ]
    },
    {
      "name": "Object_10",
      "primitives": [
        {
          "attributes": {
            "NORMAL": 41,
            "POSITION": 40,
            "TEXCOORD_0": 42
          },
          "indices": 43,
          "material": 10,
          "mode": 4
        }
      ]
    },
    {
      "name": "Object_11",
      "primitives": [
        {
          "attributes": {
            "NORMAL": 45,
            "POSITION": 44,
            "TEXCOORD_0": 46
          },
          "indices": 47,
          "material": 11,
          "mode": 4
        }
      ]
    }
  ],
  "nodes": [
    {
      "children": [
        1
      ],
      "matrix": [
        0.46964648365974426,
        0.0,
        0.0,
        0.0,
        0.0,
        1.0428246791865809e-16,
        -0.46964648365974426,
        0.0,
        0.0,
        0.46964648365974426,
        1.0428246791865809e-16,
        0.0,
        0.0,
        0.0,
        0.0,
        1.0
      ],
      "name": "Sketchfab_model"
    },
    {
      "children": [
        2,
        3,
        4,
        5,
        6,
        7,
        8,
        9,
        10,
        11,
        12,
        13
      ],
      "name": "House Low poly scene.obj.cleaner.materialmerger.gles"
    },
    {
      "mesh": 0,
      "name": "Object_2"
    },
    {
      "mesh": 1,
      "name": "Object_3"
    },
    {
      "mesh": 2,
      "name": "Object_4"
    },
    {
      "mesh": 3,
      "name": "Object_5"
    },
    {
      "mesh": 4,
      "name": "Object_6"
    },
    {
      "mesh": 5,
      "name": "Object_7"
    },
    {
      "mesh": 6,
      "name": "Object_8"
    },
    {
      "mesh": 7,
      "name": "Object_9"
    },
    {
      "mesh": 8,
      "name": "Object_10"
    },
    {
      "mesh": 9,
      "name": "Object_11"
    },
    {
      "mesh": 10,
      "name": "Object_12"
    },
    {
      "mesh": 11,
      "name": "Object_13"
    }
  ],
  "samplers": [
    {
      "magFilter": 9729,
      "minFilter": 9987,
      "wrapS": 10497,
      "wrapT": 10497
    }
  ],
  "scene": 0,
  "scenes": [
    {
      "name": "Sketchfab_Scene",
      "nodes": [
        0
      ]
    }
  ],
  "textures": [
    {
      "sampler": 0,
      "source": 0
    },
    {
      "sampler": 0,
      "source": 1
    },
    {
      "sampler": 0,
      "source": 2
    },
    {
      "sampler": 0,
      "source": 3
    },
    {
      "sampler": 0,
      "source": 4
    },
    {
      "sampler": 0,
      "source": 5
    },
    {
      "sampler": 0,
      "source": 6
    },
    {
      "sampler": 0,
      "source": 7
    },
    {
      "sampler": 0,
      "source": 8
    },
    {
      "sampler": 0,
      "source": 9
    }
  ]
}
