{
  "accessors": [
    {
      "bufferView": 2,
      "componentType": 5126,
      "count": 2670,
      "max": [
        16.39360809326172,
        1.642391324043274,
        4.667205333709717
      ],
      "min": [
        -1.3035821914672852,
        -1.642391324043274,
        -2.325543165206909
      ],
      "type": "VEC3"
    },
    {
      "bufferView": 2,
      "byteOffset": 32040,
      "componentType": 5126,
      "count": 2670,
      "max": [
        1.0,
        1.0,
        1.0
      ],
      "min": [
        -1.0,
        -1.0,
        -1.0
      ],
      "type": "VEC3"
    },
    {
      "bufferView": 3,
      "componentType": 5126,
      "count": 2670,
      "max": [
        1.0,
        1.0,
        1.0,
        1.0
      ],
      "min": [
        -1.0,
        -1.0,
        -1.0,
        -1.0
      ],
      "type": "VEC4"
    },
    {
      "bufferView": 1,
      "componentType": 5126,
      "count": 2670,
      "max": [
        0.9996263384819031,
        0.9971965551376343
      ],
      "min": [
        0.00037355851964093745,
        0.00037355851964093745
      ],
      "type": "VEC2"
    },
    {
      "bufferView": 0,
      "componentType": 5125,
      "count": 6966,
      "type": "SCALAR"
    }
  ],
  "asset": {
    "extras": {
      "author": "JuanAntonioCGI (https://sketchfab.com/maxguardior)",
      "license": "CC-BY-NC-ND-4.0 (http://creativecommons.org/licenses/by-nc-nd/4.0/)",
      "source": "https://sketchfab.com/3d-models/p30w-p30w-sci-fi-gun-e86c0c5731e44b9a94cfd30b999ca11d",
      "title": "P30W-P30W Sci-Fi Gun"
    },
    "generator": "Sketchfab-12.67.0",
    "version": "2.0"
  },
  "bufferViews": [
    {
      "buffer": 0,
      "byteLength": 27864,
      "name": "floatBufferViews",
      "target": 34963
    },
    {
      "buffer": 0,
      "byteLength": 21360,
      "byteOffset": 27864,
      "byteStride": 8,
      "name": "floatBufferViews",
      "target": 34962
    },
    {
      "buffer": 0,
      "byteLength": 64080,
      "byteOffset": 49224,
      "byteStride": 12,
      "name": "floatBufferViews",
      "target": 34962
    },
    {
      "buffer": 0,
      "byteLength": 42720,
      "byteOffset": 113304,
      "byteStride": 16,
      "name": "floatBufferViews",
      "target": 34962
    }
  ],
  "buffers": [
    {
      "byteLength": 156024,
      "uri": "scene.bin"
    }
  ],
  "images": [
    {
      "uri": "textures/P30W_P30W_baseColor.png"
    },
    {
      "uri": "textures/P30W_P30W_metallicRoughness.png"
    },
    {
      "uri": "textures/P30W_P30W_emissive.jpeg"
    },
    {
      "uri": "textures/P30W_P30W_normal.png"
    }
  ],
  "materials": [
    {
      "alphaMode": "BLEND",
      "doubleSided": true,
      "emissiveFactor": [
        1.0,
        1.0,
        1.0
      ],
      "emissiveTexture": {
        "index": 2
      },
      "name": "P30W_P30W",
      "normalTexture": {
        "index": 3
      },
      "occlusionTexture": {
        "index": 1
      },
      "pbrMetallicRoughness": {
        "baseColorTexture": {
          "index": 0
        },
        "metallicRoughnessTexture": {
          "index": 1
        }
      }
    }
  ],
  "meshes": [
    {
      "name": "P30W_P30W_P30W_P30W_0",
      "primitives": [
        {
          "attributes": {
            "NORMAL": 1,
            "POSITION": 0,
            "TANGENT": 2,
            "TEXCOORD_0": 3
          },
          "indices": 4,
          "material": 0,
          "mode": 4
        }
      ]
    }
  ],
  "nodes": [
    {
      "children": [
        1
      ],
      "matrix": [
        -0.00029979114181963827,
        4.751598407419207e-06,
        4.383496833777048e-11,
        0.0,
        0.0,
        -2.7667300626770678e-09,
        0.00029982879641465843,
        0.0,
        4.751598407419207e-06,
        0.00029979114181963827,
        2.766370381003414e-09,
        0.0,
        98.66487884521484,
        -0.9896680116653442,
        0.0014452064642680475,
        1.0
      ],
      "name": "Sketchfab_model"
    },
    {
      "children": [
        2
      ],
      "matrix": [
        1.0,
        0.0,
        0.0,
        0.0,
        0.0,
        0.0,
        1.0,
        0.0,
        0.0,
        -1.0,
        0.0,
        0.0,
        0.0,
        0.0,
        0.0,
        1.0
      ],
      "name": "408dbed482a34c60ab5386d90c839036.fbx"
    },
    {
      "children": [
        3
      ],
      "name": "RootNode"
    },
    {
      "children": [
        4
      ],
      "matrix": [
        100.0,
        0.0,
        0.0,
        0.0,
        -0.0,
        -1.629206793918314e-05,
        -99.99999999999868,
        0.0,
        0.0,
        99.99999999999868,
        -1.629206793918314e-05,
        0.0,
        -706.9945068359375,
        -290.5735168457031,
        -3.035149711649865e-05,
        1.0
      ],
      "name": "P30W_P30W"
    },
    {
      "mesh": 0,
      "name": "P30W_P30W_P30W_P30W_0"
    }
  ],
  "samplers": [
    {
      "magFilter": 9729,
      "minFilter": 9987,
      "wrapS": 10497,
      "wrapT": 10497
    }
  ],
  "scene": 0,
  "scenes": [
    {
      "name": "Sketchfab_Scene",
      "nodes": [
        0
      ]
    }
  ],
  "textures": [
    {
      "sampler": 0,
      "source": 0
    },
    {
      "sampler": 0,
      "source": 1
    },
    {
      "sampler": 0,
      "source": 2
    },
    {
      "sampler": 0,
      "source": 3
    }
  ]
}
